<svg width="163" height="166" viewBox="0 0 163 166" fill="none" xmlns="http://www.w3.org/2000/svg">
<rect width="163" height="165" rx="4" fill="white" stroke="#E6E8EC" stroke-dasharray="4"/>
<path d="M91 73V59C91 57.9 90.1 57 89 57H75C73.9 57 73 57.9 73 59V73C73 74.1 73.9 75 75 75H89C90.1 75 91 74.1 91 73ZM78.5 67.5L81 70.51L84.5 66L89 72H75L78.5 67.5Z" fill="#2BA84A"/>
<path d="M33.2613 107V96.92H37.1883C37.7903 96.92 38.3036 97.0437 38.7283 97.291C39.1576 97.5383 39.4843 97.865 39.7083 98.271C39.9369 98.6723 40.0513 99.1063 40.0513 99.573C40.0513 100.119 39.9113 100.597 39.6313 101.008C39.3513 101.419 38.9733 101.701 38.4973 101.855L38.4833 101.512C39.1319 101.685 39.6359 102.002 39.9952 102.464C40.3546 102.926 40.5343 103.477 40.5343 104.116C40.5343 104.704 40.4129 105.213 40.1703 105.642C39.9323 106.071 39.5869 106.405 39.1343 106.643C38.6863 106.881 38.1543 107 37.5383 107H33.2613ZM34.5213 105.81H37.3003C37.6736 105.81 38.0073 105.742 38.3013 105.607C38.5953 105.467 38.8263 105.271 38.9943 105.019C39.1669 104.767 39.2533 104.464 39.2533 104.109C39.2533 103.768 39.1763 103.463 39.0223 103.192C38.8729 102.921 38.6606 102.707 38.3853 102.548C38.1146 102.385 37.7996 102.303 37.4403 102.303H34.5213V105.81ZM34.5213 101.127H37.1743C37.4729 101.127 37.7413 101.064 37.9793 100.938C38.2219 100.807 38.4133 100.625 38.5533 100.392C38.6979 100.159 38.7703 99.8857 38.7703 99.573C38.7703 99.139 38.6233 98.7843 38.3293 98.509C38.0353 98.2337 37.6503 98.096 37.1743 98.096H34.5213V101.127ZM41.9292 107V99.44H43.0422V101.267L42.8602 101.029C42.9489 100.796 43.0632 100.581 43.2032 100.385C43.3479 100.189 43.5089 100.028 43.6862 99.902C43.8822 99.7433 44.1039 99.622 44.3512 99.538C44.5986 99.454 44.8506 99.405 45.1072 99.391C45.3639 99.3723 45.6042 99.3887 45.8282 99.44V100.609C45.5669 100.539 45.2799 100.52 44.9672 100.553C44.6546 100.586 44.3652 100.7 44.0992 100.896C43.8566 101.069 43.6676 101.279 43.5322 101.526C43.4016 101.773 43.3106 102.042 43.2592 102.331C43.2079 102.616 43.1822 102.907 43.1822 103.206V107H41.9292ZM50.2352 107.21C49.4838 107.21 48.8352 107.04 48.2892 106.699C47.7478 106.358 47.3302 105.887 47.0362 105.285C46.7422 104.683 46.5952 103.992 46.5952 103.213C46.5952 102.42 46.7445 101.724 47.0432 101.127C47.3418 100.53 47.7642 100.065 48.3102 99.734C48.8562 99.398 49.4978 99.23 50.2352 99.23C50.9912 99.23 51.6422 99.4003 52.1882 99.741C52.7342 100.077 53.1518 100.546 53.4412 101.148C53.7352 101.745 53.8822 102.434 53.8822 103.213C53.8822 104.002 53.7352 104.697 53.4412 105.299C53.1472 105.896 52.7272 106.365 52.1812 106.706C51.6352 107.042 50.9865 107.21 50.2352 107.21ZM50.2352 106.027C51.0192 106.027 51.6025 105.766 51.9852 105.243C52.3678 104.72 52.5592 104.044 52.5592 103.213C52.5592 102.359 52.3655 101.68 51.9782 101.176C51.5908 100.667 51.0098 100.413 50.2352 100.413C49.7078 100.413 49.2738 100.532 48.9332 100.77C48.5925 101.008 48.3382 101.337 48.1702 101.757C48.0022 102.177 47.9182 102.662 47.9182 103.213C47.9182 104.062 48.1142 104.744 48.5062 105.257C48.8982 105.77 49.4745 106.027 50.2352 106.027ZM56.7599 107L54.4499 99.433L55.6889 99.44L57.3759 104.97L59.0769 99.44H60.1759L61.8699 104.97L63.5639 99.44H64.7959L62.4859 107H61.4499L59.6229 101.253L57.7959 107H56.7599ZM68.6426 107.203C67.742 107.203 67.0023 107.007 66.4236 106.615C65.8496 106.218 65.4973 105.665 65.3666 104.956L66.6406 104.753C66.7433 105.164 66.979 105.49 67.3476 105.733C67.7163 105.971 68.1736 106.09 68.7196 106.09C69.2376 106.09 69.6436 105.983 69.9376 105.768C70.2316 105.553 70.3786 105.262 70.3786 104.893C70.3786 104.678 70.3296 104.506 70.2316 104.375C70.1336 104.24 69.9306 104.114 69.6226 103.997C69.3193 103.88 68.8596 103.74 68.2436 103.577C67.5763 103.4 67.0513 103.215 66.6686 103.024C66.286 102.833 66.013 102.611 65.8496 102.359C65.6863 102.107 65.6046 101.801 65.6046 101.442C65.6046 100.999 65.726 100.611 65.9686 100.28C66.2113 99.944 66.5496 99.685 66.9836 99.503C67.4223 99.321 67.931 99.23 68.5096 99.23C69.0836 99.23 69.597 99.321 70.0496 99.503C70.5023 99.685 70.8663 99.944 71.1416 100.28C71.4216 100.611 71.5873 100.999 71.6386 101.442L70.3646 101.673C70.304 101.267 70.108 100.947 69.7766 100.714C69.45 100.481 69.0276 100.357 68.5096 100.343C68.0196 100.324 67.6206 100.411 67.3126 100.602C67.0093 100.793 66.8576 101.052 66.8576 101.379C66.8576 101.561 66.9136 101.717 67.0256 101.848C67.1423 101.979 67.3546 102.102 67.6626 102.219C67.9753 102.336 68.428 102.469 69.0206 102.618C69.688 102.786 70.213 102.97 70.5956 103.171C70.983 103.367 71.2583 103.6 71.4216 103.871C71.585 104.137 71.6666 104.466 71.6666 104.858C71.6666 105.586 71.3983 106.16 70.8616 106.58C70.325 106.995 69.5853 107.203 68.6426 107.203ZM76.4865 107.21C75.7445 107.21 75.0958 107.047 74.5405 106.72C73.9898 106.389 73.5605 105.929 73.2525 105.341C72.9445 104.748 72.7905 104.058 72.7905 103.269C72.7905 102.443 72.9421 101.729 73.2455 101.127C73.5488 100.52 73.9711 100.054 74.5125 99.727C75.0585 99.3957 75.6978 99.23 76.4305 99.23C77.1911 99.23 77.8375 99.405 78.3695 99.755C78.9061 100.105 79.3075 100.604 79.5735 101.253C79.8441 101.902 79.9608 102.674 79.9235 103.57H78.6635V103.122C78.6495 102.193 78.4605 101.5 78.0965 101.043C77.7325 100.581 77.1911 100.35 76.4725 100.35C75.7025 100.35 75.1168 100.597 74.7155 101.092C74.3141 101.587 74.1135 102.296 74.1135 103.22C74.1135 104.111 74.3141 104.802 74.7155 105.292C75.1168 105.782 75.6885 106.027 76.4305 106.027C76.9298 106.027 77.3638 105.913 77.7325 105.684C78.1011 105.455 78.3905 105.126 78.6005 104.697L79.7975 105.11C79.5035 105.777 79.0601 106.295 78.4675 106.664C77.8795 107.028 77.2191 107.21 76.4865 107.21ZM73.6935 103.57V102.569H79.2795V103.57H73.6935ZM84.4247 98.103V96.815H85.6707V98.103H84.4247ZM84.4247 107V99.44H85.6707V107H84.4247ZM96.808 107L96.815 102.163C96.815 101.598 96.6633 101.157 96.36 100.84C96.0613 100.518 95.6717 100.357 95.191 100.357C94.911 100.357 94.645 100.422 94.393 100.553C94.141 100.679 93.9357 100.88 93.777 101.155C93.6183 101.426 93.539 101.773 93.539 102.198L92.881 101.932C92.8717 101.395 92.9813 100.926 93.21 100.525C93.4433 100.119 93.7607 99.804 94.162 99.58C94.5633 99.356 95.016 99.244 95.52 99.244C96.3087 99.244 96.9293 99.4843 97.382 99.965C97.8347 100.441 98.061 101.083 98.061 101.89L98.054 107H96.808ZM87.764 107V99.44H88.877V101.463H89.017V107H87.764ZM92.293 107L92.3 102.212C92.3 101.633 92.1507 101.181 91.852 100.854C91.5533 100.523 91.1567 100.357 90.662 100.357C90.172 100.357 89.7753 100.525 89.472 100.861C89.1687 101.197 89.017 101.643 89.017 102.198L88.359 101.806C88.359 101.316 88.4757 100.877 88.709 100.49C88.9423 100.103 89.2597 99.7993 89.661 99.58C90.0623 99.356 90.5173 99.244 91.026 99.244C91.5347 99.244 91.978 99.3513 92.356 99.566C92.734 99.7807 93.0257 100.089 93.231 100.49C93.4363 100.887 93.539 101.36 93.539 101.911L93.532 107H92.293ZM102.033 107.21C101.469 107.21 100.995 107.107 100.612 106.902C100.234 106.692 99.9473 106.417 99.7513 106.076C99.56 105.735 99.4643 105.362 99.4643 104.956C99.4643 104.559 99.539 104.216 99.6883 103.927C99.8423 103.633 100.057 103.39 100.332 103.199C100.608 103.003 100.937 102.849 101.319 102.737C101.679 102.639 102.08 102.555 102.523 102.485C102.971 102.41 103.424 102.343 103.881 102.282C104.339 102.221 104.766 102.163 105.162 102.107L104.714 102.366C104.728 101.694 104.593 101.197 104.308 100.875C104.028 100.553 103.543 100.392 102.852 100.392C102.395 100.392 101.994 100.497 101.648 100.707C101.308 100.912 101.067 101.248 100.927 101.715L99.7443 101.358C99.9263 100.695 100.279 100.175 100.801 99.797C101.324 99.419 102.012 99.23 102.866 99.23C103.552 99.23 104.14 99.3537 104.63 99.601C105.125 99.8437 105.48 100.212 105.694 100.707C105.802 100.94 105.869 101.195 105.897 101.47C105.925 101.741 105.939 102.025 105.939 102.324V107H104.833V105.187L105.092 105.355C104.808 105.966 104.409 106.428 103.895 106.741C103.387 107.054 102.766 107.21 102.033 107.21ZM102.222 106.167C102.67 106.167 103.058 106.088 103.384 105.929C103.716 105.766 103.982 105.553 104.182 105.292C104.383 105.026 104.514 104.737 104.574 104.424C104.644 104.191 104.682 103.932 104.686 103.647C104.696 103.358 104.7 103.136 104.7 102.982L105.134 103.171C104.728 103.227 104.329 103.281 103.937 103.332C103.545 103.383 103.174 103.439 102.824 103.5C102.474 103.556 102.159 103.624 101.879 103.703C101.674 103.768 101.48 103.852 101.298 103.955C101.121 104.058 100.976 104.191 100.864 104.354C100.757 104.513 100.703 104.711 100.703 104.949C100.703 105.154 100.755 105.35 100.857 105.537C100.965 105.724 101.128 105.875 101.347 105.992C101.571 106.109 101.863 106.167 102.222 106.167ZM110.818 110.57C110.422 110.57 110.034 110.509 109.656 110.388C109.278 110.267 108.931 110.082 108.613 109.835C108.301 109.592 108.039 109.284 107.829 108.911L108.97 108.309C109.157 108.678 109.421 108.946 109.761 109.114C110.107 109.282 110.461 109.366 110.825 109.366C111.306 109.366 111.705 109.277 112.022 109.1C112.34 108.927 112.573 108.668 112.722 108.323C112.876 107.978 112.951 107.548 112.946 107.035V104.97H113.093V99.44H114.199V107.049C114.199 107.254 114.192 107.453 114.178 107.644C114.169 107.835 114.146 108.024 114.108 108.211C114.01 108.748 113.817 109.189 113.527 109.534C113.238 109.884 112.865 110.143 112.407 110.311C111.95 110.484 111.42 110.57 110.818 110.57ZM110.727 107.21C110.023 107.21 109.418 107.035 108.914 106.685C108.41 106.33 108.021 105.852 107.745 105.25C107.475 104.648 107.339 103.969 107.339 103.213C107.339 102.457 107.475 101.778 107.745 101.176C108.021 100.574 108.41 100.1 108.914 99.755C109.418 99.405 110.02 99.23 110.72 99.23C111.434 99.23 112.034 99.4027 112.519 99.748C113.005 100.093 113.371 100.567 113.618 101.169C113.87 101.771 113.996 102.452 113.996 103.213C113.996 103.964 113.87 104.643 113.618 105.25C113.371 105.852 113.005 106.33 112.519 106.685C112.034 107.035 111.437 107.21 110.727 107.21ZM110.881 106.069C111.39 106.069 111.808 105.948 112.134 105.705C112.461 105.458 112.701 105.119 112.855 104.69C113.014 104.256 113.093 103.764 113.093 103.213C113.093 102.653 113.014 102.161 112.855 101.736C112.701 101.307 112.463 100.973 112.141 100.735C111.819 100.492 111.411 100.371 110.916 100.371C110.403 100.371 109.978 100.497 109.642 100.749C109.311 101.001 109.064 101.342 108.9 101.771C108.742 102.2 108.662 102.681 108.662 103.213C108.662 103.75 108.744 104.235 108.907 104.669C109.071 105.098 109.316 105.439 109.642 105.691C109.974 105.943 110.387 106.069 110.881 106.069ZM119.43 107.21C118.688 107.21 118.039 107.047 117.484 106.72C116.933 106.389 116.504 105.929 116.196 105.341C115.888 104.748 115.734 104.058 115.734 103.269C115.734 102.443 115.885 101.729 116.189 101.127C116.492 100.52 116.914 100.054 117.456 99.727C118.002 99.3957 118.641 99.23 119.374 99.23C120.134 99.23 120.781 99.405 121.313 99.755C121.849 100.105 122.251 100.604 122.517 101.253C122.787 101.902 122.904 102.674 122.867 103.57H121.607V103.122C121.593 102.193 121.404 101.5 121.04 101.043C120.676 100.581 120.134 100.35 119.416 100.35C118.646 100.35 118.06 100.597 117.659 101.092C117.257 101.587 117.057 102.296 117.057 103.22C117.057 104.111 117.257 104.802 117.659 105.292C118.06 105.782 118.632 106.027 119.374 106.027C119.873 106.027 120.307 105.913 120.676 105.684C121.044 105.455 121.334 105.126 121.544 104.697L122.741 105.11C122.447 105.777 122.003 106.295 121.411 106.664C120.823 107.028 120.162 107.21 119.43 107.21ZM116.637 103.57V102.569H122.223V103.57H116.637ZM124.376 107V105.628H125.748V107H124.376ZM128.149 107V105.628H129.521V107H128.149Z" fill="#2BA84A"/>
</svg>
